<svg width="32" height="32" viewBox="0 0 32 32" fill="none" xmlns="http://www.w3.org/2000/svg">
<path d="M21.3334 28V25.3333C21.3334 23.9188 20.7714 22.5623 19.7713 21.5621C18.7711 20.5619 17.4145 20 16 20H8.00002C6.58553 20 5.22898 20.5619 4.22878 21.5621C3.22859 22.5623 2.66669 23.9188 2.66669 25.3333V28" stroke="#7C3AED" stroke-width="2.66667" stroke-linecap="round" stroke-linejoin="round"/>
<path d="M21.3333 4.17078C22.477 4.46727 23.4898 5.13513 24.2129 6.06953C24.9359 7.00392 25.3282 8.15196 25.3282 9.33344C25.3282 10.5149 24.9359 11.663 24.2129 12.5974C23.4898 13.5318 22.477 14.1996 21.3333 14.4961" stroke="#7C3AED" stroke-width="2.66667" stroke-linecap="round" stroke-linejoin="round"/>
<path d="M29.3333 28V25.3333C29.3324 24.1516 28.9391 23.0037 28.2151 22.0698C27.4911 21.1358 26.4775 20.4688 25.3333 20.1733" stroke="#7C3AED" stroke-width="2.66667" stroke-linecap="round" stroke-linejoin="round"/>
<path d="M12 14.6667C14.9455 14.6667 17.3334 12.2789 17.3334 9.33333C17.3334 6.38781 14.9455 4 12 4C9.0545 4 6.66669 6.38781 6.66669 9.33333C6.66669 12.2789 9.0545 14.6667 12 14.6667Z" stroke="#7C3AED" stroke-width="2.66667" stroke-linecap="round" stroke-linejoin="round"/>
</svg>
