<svg width="32" height="32" viewBox="0 0 32 32" fill="none" xmlns="http://www.w3.org/2000/svg">
<path d="M16 29.3333C12.4638 29.3333 9.07241 27.9285 6.57193 25.428C4.07144 22.9276 2.66669 19.5362 2.66669 16C2.66669 12.4637 4.07144 9.07235 6.57193 6.57187C9.07241 4.07138 12.4638 2.66663 16 2.66663C19.5362 2.66663 22.9276 3.93091 25.4281 6.18134C27.9286 8.43178 29.3334 11.484 29.3334 14.6666C29.3334 16.4347 28.631 18.1304 27.3807 19.3807C26.1305 20.6309 24.4348 21.3333 22.6667 21.3333H19.6667C19.2334 21.3333 18.8086 21.454 18.44 21.6818C18.0714 21.9096 17.7735 22.2355 17.5797 22.6231C17.3859 23.0107 17.3039 23.4446 17.3428 23.8762C17.3817 24.3077 17.54 24.72 17.8 25.0666L18.2 25.6C18.46 25.9466 18.6183 26.3588 18.6573 26.7904C18.6962 27.222 18.6141 27.6559 18.4203 28.0435C18.2266 28.431 17.9287 28.757 17.5601 28.9848C17.1914 29.2126 16.7667 29.3333 16.3334 29.3333H16Z" stroke="#7C3AED" stroke-width="2.66667" stroke-linecap="round" stroke-linejoin="round"/>
<path d="M18 9.33333C18.3682 9.33333 18.6666 9.03486 18.6666 8.66667C18.6666 8.29848 18.3682 8 18 8C17.6318 8 17.3333 8.29848 17.3333 8.66667C17.3333 9.03486 17.6318 9.33333 18 9.33333Z" fill="#7C3AED" stroke="#7C3AED" stroke-width="2.66667" stroke-linecap="round" stroke-linejoin="round"/>
<path d="M23.3334 14.6667C23.7015 14.6667 24 14.3682 24 14C24 13.6319 23.7015 13.3334 23.3334 13.3334C22.9652 13.3334 22.6667 13.6319 22.6667 14C22.6667 14.3682 22.9652 14.6667 23.3334 14.6667Z" fill="#7C3AED" stroke="#7C3AED" stroke-width="2.66667" stroke-linecap="round" stroke-linejoin="round"/>
<path d="M8.66667 17.3333C9.03486 17.3333 9.33333 17.0349 9.33333 16.6667C9.33333 16.2985 9.03486 16 8.66667 16C8.29848 16 8 16.2985 8 16.6667C8 17.0349 8.29848 17.3333 8.66667 17.3333Z" fill="#7C3AED" stroke="#7C3AED" stroke-width="2.66667" stroke-linecap="round" stroke-linejoin="round"/>
<path d="M11.3334 10.6667C11.7015 10.6667 12 10.3682 12 10C12 9.63185 11.7015 9.33337 11.3334 9.33337C10.9652 9.33337 10.6667 9.63185 10.6667 10C10.6667 10.3682 10.9652 10.6667 11.3334 10.6667Z" fill="#7C3AED" stroke="#7C3AED" stroke-width="2.66667" stroke-linecap="round" stroke-linejoin="round"/>
</svg>
