<svg width="16" height="16" viewBox="0 0 16 16" fill="none" xmlns="http://www.w3.org/2000/svg">
<path d="M10 14.6666V11.9999C10.0928 11.1648 9.85329 10.3267 9.33334 9.66658C11.3333 9.66658 13.3333 8.33325 13.3333 5.99992C13.3867 5.16659 13.1533 4.34659 12.6667 3.66659C12.8533 2.89992 12.8533 2.09992 12.6667 1.33325C12.6667 1.33325 12 1.33325 10.6667 2.33325C8.90667 1.99992 7.09334 1.99992 5.33334 2.33325C4 1.33325 3.33334 1.33325 3.33334 1.33325C3.13334 2.09992 3.13334 2.89992 3.33334 3.66659C2.84792 4.34384 2.61232 5.16844 2.66667 5.99992C2.66667 8.33325 4.66667 9.66658 6.66667 9.66658C6.40667 9.99325 6.21334 10.3666 6.1 10.7666C5.98667 11.1666 5.95334 11.5866 6 11.9999V14.6666" stroke="#7C3AED" stroke-width="1.33333" stroke-linecap="round" stroke-linejoin="round"/>
<path d="M5.99998 12.0001C2.99331 13.3334 2.66665 10.6667 1.33331 10.6667" stroke="#7C3AED" stroke-width="1.33333" stroke-linecap="round" stroke-linejoin="round"/>
</svg>
