<svg width="28" height="28" viewBox="0 0 28 28" fill="none" xmlns="http://www.w3.org/2000/svg">
<path d="M21 24.5001C21 22.0247 20.0167 19.6508 18.2664 17.9004C16.516 16.1501 14.1421 15.1667 11.6667 15.1667C9.19135 15.1667 6.81738 16.1501 5.06704 17.9004C3.3167 19.6508 2.33337 22.0247 2.33337 24.5001" stroke="#00D8FF" stroke-width="2.33333" stroke-linecap="round" stroke-linejoin="round"/>
<path d="M11.6667 15.1667C14.8884 15.1667 17.5 12.555 17.5 9.33333C17.5 6.11167 14.8884 3.5 11.6667 3.5C8.44505 3.5 5.83337 6.11167 5.83337 9.33333C5.83337 12.555 8.44505 15.1667 11.6667 15.1667Z" stroke="#00D8FF" stroke-width="2.33333" stroke-linecap="round" stroke-linejoin="round"/>
<path d="M25.6668 23.3333C25.6668 19.4017 23.3334 15.75 21.0001 14C21.7671 13.4245 22.3804 12.6689 22.7858 11.8C23.1911 10.931 23.376 9.97553 23.3241 9.01808C23.2722 8.06064 22.9851 7.13075 22.4882 6.31072C21.9912 5.49068 21.2998 4.80579 20.4751 4.31665" stroke="#00D8FF" stroke-width="2.33333" stroke-linecap="round" stroke-linejoin="round"/>
</svg>
