<svg width="28" height="28" viewBox="0 0 28 28" fill="none" xmlns="http://www.w3.org/2000/svg">
<path d="M14.9683 2.54342C14.6643 2.40476 14.334 2.33301 13.9999 2.33301C13.6658 2.33301 13.3356 2.40476 13.0316 2.54342L3.03325 7.09342C2.82623 7.18471 2.65021 7.33422 2.52664 7.52376C2.40307 7.71329 2.33728 7.93467 2.33728 8.16092C2.33728 8.38718 2.40307 8.60856 2.52664 8.79809C2.65021 8.98763 2.82623 9.13714 3.03325 9.22842L13.0433 13.7901C13.3472 13.9288 13.6775 14.0005 14.0116 14.0005C14.3457 14.0005 14.6759 13.9288 14.9799 13.7901L24.9899 9.24009C25.1969 9.14881 25.373 8.99929 25.4965 8.80976C25.6201 8.62023 25.6859 8.39885 25.6859 8.17259C25.6859 7.94633 25.6201 7.72496 25.4965 7.53542C25.373 7.34589 25.1969 7.19638 24.9899 7.10509L14.9683 2.54342Z" stroke="#7C3AED" stroke-width="2.33333" stroke-linecap="round" stroke-linejoin="round"/>
<path d="M2.33338 14C2.33283 14.2231 2.39628 14.4418 2.51621 14.6299C2.63615 14.8181 2.80753 14.9679 3.01004 15.0617L13.0434 19.6233C13.3458 19.7603 13.6739 19.8311 14.0059 19.8311C14.3378 19.8311 14.666 19.7603 14.9684 19.6233L24.9784 15.0733C25.1849 14.9805 25.3599 14.8296 25.4822 14.639C25.6044 14.4484 25.6685 14.2264 25.6667 14" stroke="#7C3AED" stroke-width="2.33333" stroke-linecap="round" stroke-linejoin="round"/>
<path d="M2.33338 19.8333C2.33283 20.0564 2.39628 20.275 2.51621 20.4632C2.63615 20.6514 2.80753 20.8012 3.01004 20.8949L13.0434 25.4566C13.3458 25.5935 13.6739 25.6644 14.0059 25.6644C14.3378 25.6644 14.666 25.5935 14.9684 25.4566L24.9784 20.9066C25.1849 20.8138 25.3599 20.6629 25.4822 20.4723C25.6044 20.2817 25.6685 20.0597 25.6667 19.8333" stroke="#7C3AED" stroke-width="2.33333" stroke-linecap="round" stroke-linejoin="round"/>
</svg>
